<svg xmlns="http://www.w3.org/2000/svg" viewBox="0 0 1000 255.3"><g id="Layer_2" data-name="Layer 2"><g id="Layer_1-2" data-name="Layer 1"><path d="M626.51,237.55H618l-6.4-16.5h-34.1l-6.4,16.5h-8.55l28.25-70.3h7.5Zm-32.45-59.2-13.7,35.25h28.25l-13.7-35.25-.4-1.25Z"/><path d="M644.59,235.27a26.48,26.48,0,0,1-9.75-9.85,27.81,27.81,0,0,1,0-27.3,26.64,26.64,0,0,1,23.32-13.47,27.54,27.54,0,0,1,10.48,2,26.57,26.57,0,0,1,8.57,5.63l-4.1,5.55a21.06,21.06,0,0,0-14.6-6,19,19,0,0,0-9.75,2.62,19.52,19.52,0,0,0-7.15,7.2A19.92,19.92,0,0,0,639,211.8a19.66,19.66,0,0,0,9.8,17.22,19,19,0,0,0,9.75,2.63,21.62,21.62,0,0,0,14.7-5.8l4,5.5a28.63,28.63,0,0,1-8.62,5.52,26.93,26.93,0,0,1-10.43,2A26.4,26.4,0,0,1,644.59,235.27Z"/><path d="M723.91,185.75h7.8v51.8h-7.6V229.2a22.18,22.18,0,0,1-7.5,7,20.32,20.32,0,0,1-10.2,2.55,22.62,22.62,0,0,1-12.5-3.58,24.7,24.7,0,0,1-8.7-9.77,31.41,31.41,0,0,1,0-27.38,24.89,24.89,0,0,1,8.73-9.77,22.52,22.52,0,0,1,12.47-3.6,20.4,20.4,0,0,1,10.11,2.45,21.93,21.93,0,0,1,7.39,6.75Zm-7.87,43a17.14,17.14,0,0,0,6.2-7,23.7,23.7,0,0,0,0-20,17.28,17.28,0,0,0-6.2-7,16.46,16.46,0,0,0-9.08-2.55A15.94,15.94,0,0,0,698,194.7a17,17,0,0,0-6.06,7,24.66,24.66,0,0,0,0,20.05,16.77,16.77,0,0,0,6,6.95,16,16,0,0,0,9,2.53A16.6,16.6,0,0,0,716,228.72Z"/><path d="M786.46,162.75h7.85v74.8h-7.6V229.2a22.18,22.18,0,0,1-7.5,7,20.32,20.32,0,0,1-10.2,2.55,22.62,22.62,0,0,1-12.5-3.58,24.62,24.62,0,0,1-8.7-9.77,31.32,31.32,0,0,1,0-27.38,24.81,24.81,0,0,1,8.73-9.77,22.5,22.5,0,0,1,12.47-3.6,20.42,20.42,0,0,1,10,2.42,21.71,21.71,0,0,1,7.4,6.73Zm-7.82,66a17.14,17.14,0,0,0,6.2-7,23.7,23.7,0,0,0,0-20,17.28,17.28,0,0,0-6.2-7,16.46,16.46,0,0,0-9.08-2.55,16,16,0,0,0-8.95,2.55,17,17,0,0,0-6.05,7,24.55,24.55,0,0,0,0,20.05,16.77,16.77,0,0,0,6,6.95,16,16,0,0,0,9,2.53A16.6,16.6,0,0,0,778.64,228.72Z"/><path d="M815,214.5a20.68,20.68,0,0,0,3.1,8.9,18,18,0,0,0,6.38,6,17.28,17.28,0,0,0,8.52,2.15,21,21,0,0,0,8.18-1.58,20.8,20.8,0,0,0,6.62-4.37l4.1,5.7a27.34,27.34,0,0,1-8.67,5.57,28,28,0,0,1-10.63,2,23.89,23.89,0,0,1-12.85-3.6,25.48,25.48,0,0,1-9.12-9.8,28.31,28.31,0,0,1-3.33-13.6,30.46,30.46,0,0,1,3.1-13.73,25,25,0,0,1,8.55-9.85,21.7,21.7,0,0,1,12.25-3.62A22.22,22.22,0,0,1,852,197.75a32,32,0,0,1,2.92,13.9,19.32,19.32,0,0,1-.2,2.85Zm8.88-20.63a16.21,16.21,0,0,0-5.7,5.45,21,21,0,0,0-3,8.13H847a21.76,21.76,0,0,0-2.82-8.2,15.18,15.18,0,0,0-5.4-5.4,14.41,14.41,0,0,0-7.38-1.9A15.21,15.21,0,0,0,823.84,193.87Z"/><path d="M934.09,187.17a17.35,17.35,0,0,1,6.75,7.3,24.31,24.31,0,0,1,2.37,11v32.05h-7.75v-31.2a17.48,17.48,0,0,0-1.55-7.68,11.43,11.43,0,0,0-4.37-4.95A12.29,12.29,0,0,0,923,192a12.13,12.13,0,0,0-6.92,2.1,14.33,14.33,0,0,0-4.9,5.67,17.41,17.41,0,0,0-1.78,7.88v29.9h-7.75v-31.2a17.48,17.48,0,0,0-1.55-7.68,11.43,11.43,0,0,0-4.37-4.95,12.29,12.29,0,0,0-6.53-1.72,12.13,12.13,0,0,0-6.92,2.1,14.33,14.33,0,0,0-4.9,5.67,17.41,17.41,0,0,0-1.78,7.88v29.9h-7.75v-51.8h7.4v5.7a19,19,0,0,1,6.78-5.08,19.54,19.54,0,0,1,8-1.77,19.8,19.8,0,0,1,10.2,2.55,17.39,17.39,0,0,1,6.75,7.2,18.42,18.42,0,0,1,7.28-7.18,19.56,19.56,0,0,1,9.57-2.57A19.78,19.78,0,0,1,934.09,187.17Z"/><path d="M971.41,255.3h-8.35l7.45-17.75-21.25-51.8h8.5l16.65,42.6,16.75-42.6h8.6Z"/><polygon points="25.05 11.84 25.05 3.2 0 3.2 0 11.84 0 141.78 85.14 141.78 85.14 117.83 25.05 117.83 25.05 11.84"/><polygon points="194.51 44.76 164.46 44.76 126.65 87.03 126.65 3.24 103.08 3.24 103.08 141.78 126.65 141.78 126.65 116.35 141.26 100.9 171.58 141.78 199.59 141.78 156.98 84.35 194.51 44.76"/><path d="M286.68,47.68a40.19,40.19,0,0,0-20.25-5,42.38,42.38,0,0,0-16.55,3.47A42.89,42.89,0,0,0,236,55.31V3.24H212.54V141.78H236V88.05A23.11,23.11,0,0,1,247.8,67.7a24,24,0,0,1,12.07-3.14q10.08,0,15.67,6.28t5.59,17.76v53.18H304.8V84.44q0-13-4.72-22.43A33.16,33.16,0,0,0,286.68,47.68Z"/><path d="M346.63,2a15.34,15.34,0,0,0-15.25,0,14.76,14.76,0,0,0-5.27,5.32,13.54,13.54,0,0,0-1.9,6.89,13.29,13.29,0,0,0,1.9,6.85,14.42,14.42,0,0,0,5.27,5.22,15.6,15.6,0,0,0,15.25,0,14.42,14.42,0,0,0,5.27-5.22,13.39,13.39,0,0,0,1.9-6.85,13.64,13.64,0,0,0-1.9-6.89A14.76,14.76,0,0,0,346.63,2Z"/><rect x="327.08" y="44.76" width="23.57" height="97.02"/><path d="M452.62,49.53a45.89,45.89,0,0,0-24.31-6.8q-17,0-28.29,11.93V5.36H376.26V141.78h20.61l1.67-11.37a40.85,40.85,0,0,0,13,10,37.6,37.6,0,0,0,16.74,3.65,46.22,46.22,0,0,0,24.36-6.79,49.82,49.82,0,0,0,17.79-18.41A50.84,50.84,0,0,0,477,93.41a51,51,0,0,0-24.41-43.88ZM450,108a26,26,0,0,1-9.84,10.09,27.35,27.35,0,0,1-13.92,3.6,27.73,27.73,0,0,1-14-3.65A26.94,26.94,0,0,1,402.14,108a28.57,28.57,0,0,1-3.7-14.48,29,29,0,0,1,3.7-14.56,27,27,0,0,1,10.08-10.22,27.47,27.47,0,0,1,14-3.7,26.82,26.82,0,0,1,13.87,3.7A26.41,26.41,0,0,1,450,78.94,31.09,31.09,0,0,1,450,108Z"/><path d="M555.24,44.76A35.22,35.22,0,0,0,544,42.82a28.61,28.61,0,0,0-15,4,30,30,0,0,0-10.67,11.1l-1.67-13H496.35v96.92h23.57V91a32.09,32.09,0,0,1,3.19-13.83,23.94,23.94,0,0,1,7.81-9.25,18.31,18.31,0,0,1,10.17-3.37,25.37,25.37,0,0,1,14.79,5.08l10.45-19.23A45,45,0,0,0,555.24,44.76Z"/><path d="M642,56.6a40.86,40.86,0,0,0-13.08-10.17,37.92,37.92,0,0,0-17-3.7,45.9,45.9,0,0,0-24.32,6.8,51,51,0,0,0-24.4,43.88,50.83,50.83,0,0,0,6.56,25.48,49.85,49.85,0,0,0,17.8,18.41,46.17,46.17,0,0,0,24.36,6.79,37.58,37.58,0,0,0,16.73-3.65,40.89,40.89,0,0,0,13-10l1.66,11.37H664V44.86H643.43ZM638.07,108A26.87,26.87,0,0,1,628,118.06a27.7,27.7,0,0,1-14,3.65,27.31,27.31,0,0,1-13.91-3.6A26,26,0,0,1,590.18,108a31.16,31.16,0,0,1,0-29.08,26.41,26.41,0,0,1,9.89-10.22A26.85,26.85,0,0,1,613.94,65a27.44,27.44,0,0,1,14,3.7,26.89,26.89,0,0,1,10.08,10.22,29,29,0,0,1,3.7,14.56A28.57,28.57,0,0,1,638.07,108Z"/><path d="M706.57,118.57a16.07,16.07,0,0,0-15,0,13.38,13.38,0,0,0-7,11.84,13.38,13.38,0,0,0,7,11.83,15,15,0,0,0,7.48,1.85,15.48,15.48,0,0,0,7.49-1.8,13.07,13.07,0,0,0,5.18-4.95,13.52,13.52,0,0,0-5.18-18.77Z"/><path d="M866,47.26a36.49,36.49,0,0,0-18.95-4.81A39.83,39.83,0,0,0,829,46.84a36.68,36.68,0,0,0-14.1,12.26,30.66,30.66,0,0,0-12.39-12.39,37.24,37.24,0,0,0-18-4.26,39.44,39.44,0,0,0-15.57,3.24,38.48,38.48,0,0,0-13.18,9.15l-1.29-10H734.21v96.92h23.58V87.59a25.19,25.19,0,0,1,2.68-11.52,21.63,21.63,0,0,1,7.39-8.46,18.58,18.58,0,0,1,10.54-3.15q8.6,0,13.55,5.83t4.94,16.28v55.21h23.58V87.59a25.19,25.19,0,0,1,2.68-11.52,21.7,21.7,0,0,1,7.35-8.46A18.33,18.33,0,0,1,841,64.46q8.6,0,13.54,5.83t5,16.28v55.21h23.57V83.52q0-13-4.43-22.2A31.81,31.81,0,0,0,866,47.26Z"/><path d="M979.48,44.86,978,56.6a40.86,40.86,0,0,0-13.08-10.17,38,38,0,0,0-17-3.7,45.86,45.86,0,0,0-24.31,6.8,51,51,0,0,0-24.41,43.88,50.84,50.84,0,0,0,6.57,25.48,49.74,49.74,0,0,0,17.79,18.41A46.22,46.22,0,0,0,948,144.09a37.66,37.66,0,0,0,16.74-3.65,40.85,40.85,0,0,0,13-10l1.66,11.37H1000V44.86ZM974.11,108A26.85,26.85,0,0,1,964,118.06,27.76,27.76,0,0,1,950,121.71a27.34,27.34,0,0,1-13.91-3.6A26,26,0,0,1,926.23,108a31.09,31.09,0,0,1,0-29.08,26.41,26.41,0,0,1,9.89-10.22A26.79,26.79,0,0,1,950,65,27.51,27.51,0,0,1,964,68.72a26.86,26.86,0,0,1,10.07,10.22,28.93,28.93,0,0,1,3.7,14.56A28.47,28.47,0,0,1,974.11,108Z"/></g></g></svg>